<svg width="217" height="21" viewBox="0 0 217 21" fill="none" xmlns="http://www.w3.org/2000/svg">
<rect y="12.74" width="211" height="7" fill="#FFFF00"/>
<path d="M6.94003 4.9C9.50003 4.9 10.78 6.74667 10.78 10.44C10.78 12.1067 10.4267 13.4533 9.72003 14.48C9.01336 15.4933 8.0067 16 6.70003 16C5.59336 16 4.70003 15.6133 4.02003 14.84V19.8L1.78003 20.06V5.18H3.72003L3.86003 6.54C4.26003 6.00667 4.72003 5.6 5.24003 5.32C5.77336 5.04 6.34003 4.9 6.94003 4.9ZM6.32003 6.62C5.85336 6.62 5.4267 6.76 5.04003 7.04C4.65336 7.32 4.31336 7.68667 4.02003 8.14V13.08C4.54003 13.8667 5.23336 14.26 6.10003 14.26C6.87336 14.26 7.45336 13.9533 7.84003 13.34C8.2267 12.7267 8.42003 11.7667 8.42003 10.46C8.42003 9.11333 8.2467 8.14 7.90003 7.54C7.55336 6.92667 7.0267 6.62 6.32003 6.62Z" fill="black"/>
<path d="M17.8922 0C18.3189 0 18.6656 0.14 18.9322 0.420001C19.2122 0.686667 19.3522 1.02 19.3522 1.42C19.3522 1.82 19.2122 2.15333 18.9322 2.42C18.6656 2.68667 18.3189 2.82 17.8922 2.82C17.4522 2.82 17.0989 2.68667 16.8322 2.42C16.5656 2.15333 16.4322 1.82 16.4322 1.42C16.4322 1.00667 16.5656 0.666667 16.8322 0.400001C17.1122 0.133333 17.4655 0 17.8922 0ZM19.4322 14.1H22.3122V15.74H14.0522V14.1H17.1922V6.82H14.1522V5.18H19.4322V14.1Z" fill="black"/>
<path d="M27.4244 11.18C27.4911 12.2067 27.7844 12.98 28.3044 13.5C28.8377 14.0067 29.5044 14.26 30.3044 14.26C30.7977 14.26 31.2644 14.1867 31.7044 14.04C32.1577 13.88 32.6177 13.6467 33.0844 13.34L34.0444 14.7C33.5511 15.1133 32.9711 15.4333 32.3044 15.66C31.6377 15.8867 30.9377 16 30.2044 16C28.5911 16 27.3377 15.5 26.4444 14.5C25.5511 13.4867 25.1044 12.14 25.1044 10.46C25.1044 9.40667 25.2977 8.46 25.6844 7.62C26.0711 6.76667 26.6311 6.1 27.3644 5.62C28.0977 5.14 28.9511 4.9 29.9244 4.9C31.3244 4.9 32.4311 5.37333 33.2444 6.32C34.0711 7.25333 34.4844 8.54 34.4844 10.18C34.4844 10.58 34.4644 10.9133 34.4244 11.18H27.4244ZM29.9444 6.56C29.2244 6.56 28.6377 6.82 28.1844 7.34C27.7311 7.86 27.4711 8.63334 27.4044 9.66H32.3044C32.2777 8.66 32.0644 7.89333 31.6644 7.36C31.2644 6.82667 30.6911 6.56 29.9444 6.56Z" fill="black"/>
<path d="M44.9366 4.92C45.4833 4.92 46.0166 5.00667 46.5366 5.18L46.1566 9.08H44.5566V6.92C43.8233 6.93333 43.1833 7.22667 42.6366 7.8C42.1033 8.37333 41.6766 9.18 41.3566 10.22V14.14H43.4766V15.74H37.5566V14.14H39.1166V6.78H37.5566V5.18H40.8166L41.2166 7.62C41.6299 6.71333 42.1299 6.04 42.7166 5.6C43.3166 5.14667 44.0566 4.92 44.9366 4.92Z" fill="black"/>
<path d="M54.8688 15.74H52.2688L48.5288 5.18H50.9488L53.6088 13.88L56.3088 5.18H58.6088L54.8688 15.74Z" fill="black"/>
<path d="M65.461 0C65.8876 0 66.2343 0.14 66.501 0.420001C66.781 0.686667 66.921 1.02 66.921 1.42C66.921 1.82 66.781 2.15333 66.501 2.42C66.2343 2.68667 65.8876 2.82 65.461 2.82C65.021 2.82 64.6676 2.68667 64.401 2.42C64.1343 2.15333 64.001 1.82 64.001 1.42C64.001 1.00667 64.1343 0.666667 64.401 0.400001C64.681 0.133333 65.0343 0 65.461 0ZM67.001 14.1H69.881V15.74H61.621V14.1H64.761V6.82H61.721V5.18H67.001V14.1Z" fill="black"/>
<path d="M73.1332 5.18H75.0732L75.2332 6.56C75.6732 6.02667 76.1865 5.62 76.7732 5.34C77.3732 5.04667 77.9998 4.9 78.6532 4.9C79.6265 4.9 80.3598 5.17333 80.8532 5.72C81.3465 6.26667 81.5932 7.04 81.5932 8.04V15.74H79.3532V9.16C79.3532 8.50667 79.3132 8.00667 79.2332 7.66C79.1665 7.3 79.0265 7.04 78.8132 6.88C78.5998 6.70667 78.2798 6.62 77.8532 6.62C77.3732 6.62 76.9132 6.76667 76.4732 7.06C76.0465 7.35333 75.6798 7.72 75.3732 8.16V15.74H73.1332V5.18Z" fill="black"/>
<path d="M90.1253 14.16C90.9653 14.16 91.832 13.86 92.7253 13.26L93.7453 14.7C93.2787 15.1 92.7187 15.42 92.0653 15.66C91.412 15.8867 90.7387 16 90.0453 16C88.432 16 87.172 15.5067 86.2653 14.52C85.3587 13.52 84.9053 12.1867 84.9053 10.52C84.9053 9.44 85.112 8.48 85.5253 7.64C85.9387 6.78667 86.532 6.12 87.3053 5.64C88.092 5.14667 89.0187 4.9 90.0853 4.9C91.4853 4.9 92.7053 5.32667 93.7453 6.18L92.7053 7.58C91.852 6.99333 90.992 6.7 90.1253 6.7C89.2453 6.7 88.552 7.02 88.0453 7.66C87.5387 8.28667 87.2853 9.24 87.2853 10.52C87.2853 11.7733 87.5387 12.6933 88.0453 13.28C88.552 13.8667 89.2453 14.16 90.1253 14.16Z" fill="black"/>
<path d="M98.7775 11.18C98.8442 12.2067 99.1375 12.98 99.6575 13.5C100.191 14.0067 100.858 14.26 101.658 14.26C102.151 14.26 102.618 14.1867 103.058 14.04C103.511 13.88 103.971 13.6467 104.438 13.34L105.398 14.7C104.904 15.1133 104.324 15.4333 103.658 15.66C102.991 15.8867 102.291 16 101.558 16C99.9442 16 98.6909 15.5 97.7975 14.5C96.9042 13.4867 96.4575 12.14 96.4575 10.46C96.4575 9.40667 96.6509 8.46 97.0375 7.62C97.4242 6.76667 97.9842 6.1 98.7175 5.62C99.4509 5.14 100.304 4.9 101.278 4.9C102.678 4.9 103.784 5.37333 104.598 6.32C105.424 7.25333 105.838 8.54 105.838 10.18C105.838 10.58 105.818 10.9133 105.778 11.18H98.7775ZM101.298 6.56C100.578 6.56 99.9909 6.82 99.5375 7.34C99.0842 7.86 98.8242 8.63334 98.7575 9.66H103.658C103.631 8.66 103.418 7.89333 103.018 7.36C102.618 6.82667 102.044 6.56 101.298 6.56Z" fill="black"/>
<path d="M108.81 5.18H110.75L110.91 6.56C111.35 6.02667 111.863 5.62 112.45 5.34C113.05 5.04667 113.676 4.9 114.33 4.9C115.303 4.9 116.036 5.17333 116.53 5.72C117.023 6.26667 117.27 7.04 117.27 8.04V15.74H115.03V9.16C115.03 8.50667 114.99 8.00667 114.91 7.66C114.843 7.3 114.703 7.04 114.49 6.88C114.276 6.70667 113.956 6.62 113.53 6.62C113.05 6.62 112.59 6.76667 112.15 7.06C111.723 7.35333 111.356 7.72 111.05 8.16V15.74H108.81V5.18Z" fill="black"/>
<path d="M129.082 13.94L128.842 15.74H120.742V14.1L126.362 6.98H121.182V5.18H129.002V6.82L123.422 13.94H129.082Z" fill="black"/>
<path d="M136.834 4.9C138.354 4.9 139.527 5.4 140.354 6.4C141.181 7.38667 141.594 8.73333 141.594 10.44C141.594 12.1467 141.174 13.5 140.334 14.5C139.494 15.5 138.321 16 136.814 16C135.294 16 134.114 15.5133 133.274 14.54C132.447 13.5533 132.034 12.1933 132.034 10.46C132.034 8.78 132.454 7.43333 133.294 6.42C134.147 5.40667 135.327 4.9 136.834 4.9ZM136.834 6.64C136.021 6.64 135.407 6.95333 134.994 7.58C134.594 8.20667 134.394 9.16667 134.394 10.46C134.394 11.7667 134.594 12.7333 134.994 13.36C135.394 13.9733 136.001 14.28 136.814 14.28C137.627 14.28 138.234 13.9667 138.634 13.34C139.034 12.7133 139.234 11.7467 139.234 10.44C139.234 9.14667 139.034 8.19333 138.634 7.58C138.234 6.95333 137.634 6.64 136.834 6.64Z" fill="black"/>
<path d="M167.658 4.9C168.312 4.9 168.825 5.12667 169.198 5.58C169.572 6.03333 169.758 6.80667 169.758 7.9V15.74H167.778V8.2C167.778 7.61333 167.732 7.20667 167.638 6.98C167.558 6.75333 167.372 6.64 167.078 6.64C166.518 6.64 165.998 6.99333 165.518 7.7V15.74H163.698V8.2C163.698 7.61333 163.652 7.20667 163.558 6.98C163.478 6.75333 163.292 6.64 162.998 6.64C162.438 6.64 161.918 6.99333 161.438 7.7V15.74H159.438V5.18H161.118L161.278 6.32C161.612 5.85333 161.952 5.5 162.298 5.26C162.645 5.02 163.058 4.9 163.538 4.9C164.472 4.9 165.072 5.34667 165.338 6.24C165.658 5.81333 166.005 5.48667 166.378 5.26C166.752 5.02 167.178 4.9 167.658 4.9Z" fill="black"/>
<path d="M180.351 13.16C180.351 13.56 180.411 13.86 180.531 14.06C180.651 14.2467 180.857 14.3867 181.151 14.48L180.631 16C179.524 15.8667 178.797 15.38 178.451 14.54C178.064 15.02 177.577 15.3867 176.991 15.64C176.417 15.88 175.784 16 175.091 16C174.024 16 173.177 15.7 172.551 15.1C171.924 14.5 171.611 13.7067 171.611 12.72C171.611 11.6133 172.044 10.76 172.911 10.16C173.791 9.56 175.031 9.26 176.631 9.26H178.131V8.58C178.131 7.91333 177.931 7.42667 177.531 7.12C177.131 6.81333 176.551 6.66 175.791 6.66C175.417 6.66 174.984 6.70667 174.491 6.8C173.997 6.89333 173.497 7.02667 172.991 7.2L172.431 5.62C173.697 5.14 174.931 4.9 176.131 4.9C177.531 4.9 178.584 5.20667 179.291 5.82C179.997 6.43333 180.351 7.30667 180.351 8.44V13.16ZM175.751 14.36C176.217 14.36 176.664 14.24 177.091 14C177.531 13.76 177.877 13.4267 178.131 13V10.66H176.891C175.877 10.66 175.137 10.8333 174.671 11.18C174.204 11.5133 173.971 12 173.971 12.64C173.971 13.2 174.117 13.6267 174.411 13.92C174.717 14.2133 175.164 14.36 175.751 14.36Z" fill="black"/>
<path d="M192.603 0.940001V15.74H190.623L190.463 14.44C190.116 14.9467 189.69 15.3333 189.183 15.6C188.676 15.8667 188.116 16 187.503 16C186.183 16 185.19 15.5067 184.523 14.52C183.856 13.5333 183.523 12.18 183.523 10.46C183.523 9.38 183.69 8.42 184.023 7.58C184.37 6.74 184.856 6.08667 185.483 5.62C186.11 5.14 186.85 4.9 187.703 4.9C188.783 4.9 189.67 5.28667 190.363 6.06V0.680001L192.603 0.940001ZM188.283 6.62C187.51 6.62 186.916 6.94 186.503 7.58C186.103 8.20667 185.903 9.16667 185.903 10.46C185.903 13.02 186.636 14.3 188.103 14.3C188.983 14.3 189.736 13.7933 190.363 12.78V7.8C189.816 7.01333 189.123 6.62 188.283 6.62Z" fill="black"/>
<path d="M197.915 11.18C197.982 12.2067 198.275 12.98 198.795 13.5C199.328 14.0067 199.995 14.26 200.795 14.26C201.288 14.26 201.755 14.1867 202.195 14.04C202.648 13.88 203.108 13.6467 203.575 13.34L204.535 14.7C204.042 15.1133 203.462 15.4333 202.795 15.66C202.128 15.8867 201.428 16 200.695 16C199.082 16 197.828 15.5 196.935 14.5C196.042 13.4867 195.595 12.14 195.595 10.46C195.595 9.40667 195.788 8.46 196.175 7.62C196.562 6.76667 197.122 6.1 197.855 5.62C198.588 5.14 199.442 4.9 200.415 4.9C201.815 4.9 202.922 5.37333 203.735 6.32C204.562 7.25333 204.975 8.54 204.975 10.18C204.975 10.58 204.955 10.9133 204.915 11.18H197.915ZM200.435 6.56C199.715 6.56 199.128 6.82 198.675 7.34C198.222 7.86 197.962 8.63334 197.895 9.66H202.795C202.768 8.66 202.555 7.89333 202.155 7.36C201.755 6.82667 201.182 6.56 200.435 6.56Z" fill="black"/>
<path d="M212.187 4.9C213.707 4.9 214.881 5.4 215.707 6.4C216.534 7.38667 216.947 8.73333 216.947 10.44C216.947 12.1467 216.527 13.5 215.687 14.5C214.847 15.5 213.674 16 212.167 16C210.647 16 209.467 15.5133 208.627 14.54C207.801 13.5533 207.387 12.1933 207.387 10.46C207.387 8.78 207.807 7.43333 208.647 6.42C209.501 5.40667 210.681 4.9 212.187 4.9ZM212.187 6.64C211.374 6.64 210.761 6.95333 210.347 7.58C209.947 8.20667 209.747 9.16667 209.747 10.46C209.747 11.7667 209.947 12.7333 210.347 13.36C210.747 13.9733 211.354 14.28 212.167 14.28C212.981 14.28 213.587 13.9667 213.987 13.34C214.387 12.7133 214.587 11.7467 214.587 10.44C214.587 9.14667 214.387 8.19333 213.987 7.58C213.587 6.95333 212.987 6.64 212.187 6.64Z" fill="black"/>
<path d="M149.823 8.84522L146.836 11.0052L149.823 13.1548L149.344 14L146 11.5061V10.4939L149.37 8L149.823 8.84522Z" fill="#666666"/>
<path d="M155 10.4939V11.5061L151.656 14L151.177 13.1652L154.155 11.0052L151.177 8.86609L151.63 8L155 10.4939Z" fill="#666666"/>
</svg>
